<svg width="100%" height="100%" viewBox="0 0 1467 960" preserveAspectRatio="none" fill="none" xmlns="http://www.w3.org/2000/svg">
<rect width="1440" height="920" transform="translate(26.6543 39.8473)" fill="url(#paint0_linear_985_5339)"/>
<path d="M25.1543 44.3473V157.347H133.657L134.107 156.752L152.009 133.054H411.154V44.3473H25.1543Z" fill="#032340" stroke="white" stroke-width="3"/>
<path d="M107.644 147.932H129.187L147.14 124.731H180.653" stroke="white" stroke-width="3"/>
<ellipse cx="108.574" cy="147.932" rx="1.32986" ry="2.72953" fill="white"/>
<ellipse cx="181.184" cy="125.004" rx="1.32986" ry="2.72953" fill="white"/>
<g opacity="0.88" filter="url(#filter0_f_985_5339)">
<path d="M281.102 75.0264C288.269 75.0065 303.222 74.9786 305.695 75.0264C308.167 75.0741 308.909 77.8915 308.291 79.2051C306.437 82.2101 302.334 88.877 300.752 91.5039C299.17 94.1307 295.767 94.9071 294.264 94.9668H269.855C267.384 94.9668 267.046 91.6233 267.692 90.6084C270.226 86.6283 275.553 78.3334 276.591 76.9961C277.629 75.6591 280.03 75.1259 281.102 75.0264ZM282.399 79.5635C281.946 79.5237 280.904 79.6473 280.36 80.459C279.817 81.2709 275.849 87.524 273.934 90.5488H294.264C294.552 90.509 295.215 90.2978 295.562 89.7725C295.908 89.2462 299.99 82.7473 301.988 79.5635H282.399Z" fill="url(#paint1_linear_985_5339)" fill-opacity="0.2"/>
</g>
<g opacity="0.88" filter="url(#filter1_f_985_5339)">
<path d="M281.102 75.0264C288.269 75.0065 303.222 74.9786 305.695 75.0264C308.167 75.0741 308.909 77.8915 308.291 79.2051C306.437 82.2101 302.334 88.877 300.752 91.5039C299.17 94.1307 295.767 94.9071 294.264 94.9668H269.855C267.384 94.9668 267.046 91.6233 267.692 90.6084C270.226 86.6283 275.553 78.3334 276.591 76.9961C277.629 75.6591 280.03 75.1259 281.102 75.0264ZM282.399 79.5635C281.946 79.5237 280.904 79.6473 280.36 80.459C279.817 81.2709 275.849 87.524 273.934 90.5488H294.264C294.552 90.509 295.215 90.2978 295.562 89.7725C295.908 89.2462 299.99 82.7473 301.988 79.5635H282.399Z" fill="url(#paint2_linear_985_5339)" fill-opacity="0.2"/>
</g>
<path d="M281.102 75.0264C288.269 75.0065 303.222 74.9786 305.695 75.0264C308.167 75.0741 308.909 77.8915 308.291 79.2051C306.437 82.2101 302.334 88.877 300.752 91.5039C299.17 94.1307 295.767 94.9071 294.264 94.9668H269.855C267.384 94.9668 267.046 91.6233 267.692 90.6084C270.226 86.6283 275.553 78.3334 276.591 76.9961C277.629 75.6591 280.03 75.1259 281.102 75.0264ZM282.399 79.5635C281.946 79.5237 280.904 79.6473 280.36 80.459C279.817 81.2709 275.849 87.524 273.934 90.5488H294.264C294.552 90.509 295.215 90.2978 295.562 89.7725C295.908 89.2462 299.99 82.7473 301.988 79.5635H282.399Z" fill="url(#paint3_linear_985_5339)"/>
<path d="M94.7932 95.0264H68.6543C70.4669 91.9617 74.2652 85.5339 74.9573 84.3398C75.6494 83.1458 76.5639 82.8075 76.9347 82.7876H99.4895C98.7274 83.9219 97.0919 86.298 96.647 86.7279C96.2021 87.1577 95.4729 87.305 95.1639 87.3249H79.4792L77.5526 90.5488H99.7985C99.057 91.6234 97.4627 93.8801 97.0178 94.31C96.5728 94.7398 95.3493 94.9667 94.7932 95.0264Z" fill="white"/>
<path d="M103.383 79.4443H77.9234C78.5619 78.5289 80.012 76.5189 80.7041 75.8025C81.3962 75.0861 83.0523 74.9866 83.7938 75.0264H108.326C107.646 76.0015 106.151 78.107 105.607 78.7279C105.063 79.3488 103.897 79.4642 103.383 79.4443Z" fill="white"/>
<path d="M172.221 95.0264H146.082C147.895 91.9617 151.693 85.5339 152.385 84.3398C153.077 83.1458 153.992 82.8075 154.362 82.7876H176.917C176.155 83.9219 174.52 86.298 174.075 86.7279C173.63 87.1577 172.901 87.305 172.592 87.3249H156.907L154.98 90.5488H177.226C176.485 91.6234 174.89 93.8801 174.445 94.31C174.001 94.7398 172.777 94.9667 172.221 95.0264Z" fill="white"/>
<path d="M180.81 79.4443H155.351C155.99 78.5289 157.44 76.5189 158.132 75.8025C158.824 75.0861 160.48 74.9866 161.222 75.0264H185.754C185.074 76.0015 183.579 78.107 183.035 78.7279C182.491 79.3488 181.325 79.4642 180.81 79.4443Z" fill="white"/>
<path d="M186.805 85.116L180.749 95.0264H186.125C186.867 95.0264 187.423 94.3498 187.608 94.0115L191.069 88.2801H199.164L204.231 95.0264H211.522L206.332 88.2801H211.028C212.511 88.2801 214.159 87.0065 214.798 86.3697C216.713 83.4841 220.693 77.4503 221.286 76.3995C221.879 75.3488 220.874 75.0065 220.297 74.9667H194.406C193.318 74.9667 192.346 75.7627 191.996 76.1607L189.586 79.504H212.82C212.223 80.499 210.954 82.6204 210.657 83.1458C210.361 83.6712 209.833 83.8423 209.607 83.8622H189.4C187.967 83.8622 187.073 84.6981 186.805 85.116Z" fill="white"/>
<path d="M252.306 79.3846H224.499C225.055 78.5886 226.328 76.7816 226.971 75.9219C227.614 75.0622 229.422 74.9269 230.246 74.9667H257.003C256.303 75.8622 254.778 77.8204 254.284 78.4891C253.79 79.1578 252.76 79.3647 252.306 79.3846Z" fill="white"/>
<path d="M232.285 95.0264H227.28C229.669 91.106 234.547 83.1219 234.942 82.5488C235.338 81.9757 236.178 81.7926 236.549 81.7727H241.925C239.536 85.6334 234.609 93.5219 234.015 94.1906C233.422 94.8592 232.615 95.0264 232.285 95.0264Z" fill="white"/>
<path d="M256.014 95.0264H250.885C254.696 88.8573 262.416 76.3757 262.811 75.8025C263.207 75.2294 264.13 75.0065 264.542 74.9667H269.794C265.778 81.2752 257.67 93.9995 257.374 94.4294C257.077 94.8592 256.344 95.0065 256.014 95.0264Z" fill="white"/>
<path d="M310.702 95.0264H305.449C308.972 89.4543 316.202 78.0115 316.943 76.8175C317.685 75.6234 319.271 75.0861 319.971 74.9667H324.42C325.013 74.9667 325.615 75.5239 325.841 75.8025L332.639 88.3995C334.863 84.8175 339.473 77.3786 340.116 76.2801C340.758 75.1816 341.743 74.9468 342.155 74.9667H347.655C344.297 80.3 337.335 91.3607 336.346 92.9369C335.358 94.513 333.833 95.0264 333.195 95.0861H329.549C329.104 95.0861 328.457 94.4493 328.19 94.1309L320.96 80.8772C318.117 85.1956 312.346 93.9518 312 94.4294C311.653 94.907 310.99 95.0264 310.702 95.0264Z" fill="white"/>
<g opacity="0.88" filter="url(#filter2_f_985_5339)">
<path d="M124.983 88.3871L112.945 95.1455H106.39L122.914 85.8692L124.983 88.3871ZM138.847 95.1455H132.29L126.843 88.3854L131.389 85.886L138.847 95.1455ZM130.852 85.1348L126.277 87.6696L124.157 85.1348L128.733 82.6L130.852 85.1348ZM126.048 85.1809L126.996 86.3144L129.041 85.1809L128.093 84.0475L126.048 85.1809ZM128.199 81.9268L123.655 84.4262L116.133 75.0861H122.69L128.199 81.9268ZM132.094 84.3969L130.022 81.8781L142.122 75.0861H148.679L132.094 84.3969Z" fill="#4670AE"/>
<path d="M124.983 88.3871L112.945 95.1455H106.39L122.914 85.8692L124.983 88.3871ZM138.847 95.1455H132.29L126.843 88.3854L131.389 85.886L138.847 95.1455ZM130.852 85.1348L126.277 87.6696L124.157 85.1348L128.733 82.6L130.852 85.1348ZM126.048 85.1809L126.996 86.3144L129.041 85.1809L128.093 84.0475L126.048 85.1809ZM128.199 81.9268L123.655 84.4262L116.133 75.0861H122.69L128.199 81.9268ZM132.094 84.3969L130.022 81.8781L142.122 75.0861H148.679L132.094 84.3969Z" fill="url(#paint4_linear_985_5339)"/>
<path d="M124.983 88.3871L112.945 95.1455H106.39L122.914 85.8692L124.983 88.3871ZM138.847 95.1455H132.29L126.843 88.3854L131.389 85.886L138.847 95.1455ZM130.852 85.1348L126.277 87.6696L124.157 85.1348L128.733 82.6L130.852 85.1348ZM126.048 85.1809L126.996 86.3144L129.041 85.1809L128.093 84.0475L126.048 85.1809ZM128.199 81.9268L123.655 84.4262L116.133 75.0861H122.69L128.199 81.9268ZM132.094 84.3969L130.022 81.8781L142.122 75.0861H148.679L132.094 84.3969Z" fill="url(#paint5_linear_985_5339)"/>
<path d="M124.983 88.3871L112.945 95.1455H106.39L122.914 85.8692L124.983 88.3871ZM138.847 95.1455H132.29L126.843 88.3854L131.389 85.886L138.847 95.1455ZM130.852 85.1348L126.277 87.6696L124.157 85.1348L128.733 82.6L130.852 85.1348ZM126.048 85.1809L126.996 86.3144L129.041 85.1809L128.093 84.0475L126.048 85.1809ZM128.199 81.9268L123.655 84.4262L116.133 75.0861H122.69L128.199 81.9268ZM132.094 84.3969L130.022 81.8781L142.122 75.0861H148.679L132.094 84.3969Z" fill="url(#paint6_linear_985_5339)"/>
</g>
<path d="M124.993 88.2678L112.956 95.0261H106.4L122.924 85.7507L124.993 88.2678ZM138.858 95.0261H132.301L126.854 88.266L131.4 85.7675L138.858 95.0261ZM130.862 85.0154L126.287 87.5502L124.168 85.0154L128.742 82.4806L130.862 85.0154ZM126.058 85.0616L127.006 86.195L129.051 85.0616L128.105 83.9281L126.058 85.0616ZM128.21 81.8075L123.665 84.3068L116.144 74.9667H122.701L128.21 81.8075ZM132.105 84.2775L130.033 81.7587L142.133 74.9667H148.689L132.105 84.2775Z" fill="#008EF4"/>
<path d="M124.993 88.2678L112.956 95.0261H106.4L122.924 85.7507L124.993 88.2678ZM138.858 95.0261H132.301L126.854 88.266L131.4 85.7675L138.858 95.0261ZM130.862 85.0154L126.287 87.5502L124.168 85.0154L128.742 82.4806L130.862 85.0154ZM126.058 85.0616L127.006 86.195L129.051 85.0616L128.105 83.9281L126.058 85.0616ZM128.21 81.8075L123.665 84.3068L116.144 74.9667H122.701L128.21 81.8075ZM132.105 84.2775L130.033 81.7587L142.133 74.9667H148.689L132.105 84.2775Z" fill="url(#paint7_linear_985_5339)"/>
<path d="M124.993 88.2678L112.956 95.0261H106.4L122.924 85.7507L124.993 88.2678ZM138.858 95.0261H132.301L126.854 88.266L131.4 85.7675L138.858 95.0261ZM130.862 85.0154L126.287 87.5502L124.168 85.0154L128.742 82.4806L130.862 85.0154ZM126.058 85.0616L127.006 86.195L129.051 85.0616L128.105 83.9281L126.058 85.0616ZM128.21 81.8075L123.665 84.3068L116.144 74.9667H122.701L128.21 81.8075ZM132.105 84.2775L130.033 81.7587L142.133 74.9667H148.689L132.105 84.2775Z" fill="url(#paint8_linear_985_5339)"/>
<path d="M124.993 88.2678L112.956 95.0261H106.4L122.924 85.7507L124.993 88.2678ZM138.858 95.0261H132.301L126.854 88.266L131.4 85.7675L138.858 95.0261ZM130.862 85.0154L126.287 87.5502L124.168 85.0154L128.742 82.4806L130.862 85.0154ZM126.058 85.0616L127.006 86.195L129.051 85.0616L128.105 83.9281L126.058 85.0616ZM128.21 81.8075L123.665 84.3068L116.144 74.9667H122.701L128.21 81.8075ZM132.105 84.2775L130.033 81.7587L142.133 74.9667H148.689L132.105 84.2775Z" fill="url(#paint9_linear_985_5339)"/>
<path d="M270.078 97.9718C253.479 105.938 216.917 112.896 180.168 114.53C136.444 116.475 109.013 110.148 118.898 100.4C119.235 100.068 119.611 99.7359 120.024 99.4049C120.747 99.034 121.483 98.799 122.031 98.7989C122.709 98.799 122.92 99.1595 122.674 99.6926L123.126 99.6023C117.494 108.469 144.283 114.038 185.666 112.197C218.777 110.725 251.735 104.931 270.078 97.9718Z" fill="white"/>
<path d="M152.624 72.0493C166.581 65.8172 198.66 60.373 231.574 59.0946C270.728 57.5739 296.236 62.5232 288.548 70.1487C288.303 70.3917 288.027 70.6345 287.721 70.8768C287.087 71.1948 286.41 71.3991 285.89 71.3993C285.278 71.3993 285.042 71.1175 285.198 70.7004L284.84 70.7642C288.782 63.8329 263.953 59.4805 226.909 60.9192C197.256 62.0709 168.28 66.6053 152.624 72.0493Z" fill="white"/>
<defs>
<filter id="filter0_f_985_5339" x="192.406" y="0" width="191.091" height="169.967" filterUnits="userSpaceOnUse" color-interpolation-filters="sRGB">
<feFlood flood-opacity="0" result="BackgroundImageFix"/>
<feBlend mode="normal" in="SourceGraphic" in2="BackgroundImageFix" result="shape"/>
<feGaussianBlur stdDeviation="37.5" result="effect1_foregroundBlur_985_5339"/>
</filter>
<filter id="filter1_f_985_5339" x="192.406" y="0" width="191.091" height="169.967" filterUnits="userSpaceOnUse" color-interpolation-filters="sRGB">
<feFlood flood-opacity="0" result="BackgroundImageFix"/>
<feBlend mode="normal" in="SourceGraphic" in2="BackgroundImageFix" result="shape"/>
<feGaussianBlur stdDeviation="37.5" result="effect1_foregroundBlur_985_5339"/>
</filter>
<filter id="filter2_f_985_5339" x="31.3896" y="0.0860596" width="192.289" height="170.059" filterUnits="userSpaceOnUse" color-interpolation-filters="sRGB">
<feFlood flood-opacity="0" result="BackgroundImageFix"/>
<feBlend mode="normal" in="SourceGraphic" in2="BackgroundImageFix" result="shape"/>
<feGaussianBlur stdDeviation="37.5" result="effect1_foregroundBlur_985_5339"/>
</filter>
<linearGradient id="paint0_linear_985_5339" x1="720" y1="0" x2="720" y2="920" gradientUnits="userSpaceOnUse">
<stop stop-color="#528CC0"/>
<stop offset="0.31" stop-color="#5193CB"/>
<stop offset="0.62" stop-color="#7CBCE8"/>
</linearGradient>
<linearGradient id="paint1_linear_985_5339" x1="276.539" y1="97.8095" x2="294.206" y2="76.0984" gradientUnits="userSpaceOnUse">
<stop stop-color="#008EF4"/>
<stop offset="1" stop-color="#03CBFD"/>
</linearGradient>
<linearGradient id="paint2_linear_985_5339" x1="276.539" y1="97.8095" x2="294.206" y2="76.0984" gradientUnits="userSpaceOnUse">
<stop stop-color="#008EF4"/>
<stop offset="1" stop-color="#03CBFD"/>
</linearGradient>
<linearGradient id="paint3_linear_985_5339" x1="276.539" y1="97.8095" x2="294.206" y2="76.0984" gradientUnits="userSpaceOnUse">
<stop stop-color="#008EF4"/>
<stop offset="1" stop-color="#03CBFD"/>
</linearGradient>
<linearGradient id="paint4_linear_985_5339" x1="121.807" y1="74.1308" x2="127.296" y2="87.3704" gradientUnits="userSpaceOnUse">
<stop stop-color="#03CDFE"/>
<stop offset="1" stop-color="#03CDFE" stop-opacity="0"/>
</linearGradient>
<linearGradient id="paint5_linear_985_5339" x1="142.449" y1="77.0562" x2="132.493" y2="91.367" gradientUnits="userSpaceOnUse">
<stop stop-color="#03CDFE"/>
<stop offset="1" stop-color="#03CDFE" stop-opacity="0"/>
</linearGradient>
<linearGradient id="paint6_linear_985_5339" x1="136.995" y1="95.1455" x2="128.571" y2="85.3535" gradientUnits="userSpaceOnUse">
<stop stop-color="#03CDFE"/>
<stop offset="1" stop-color="#03CDFE" stop-opacity="0"/>
</linearGradient>
<linearGradient id="paint7_linear_985_5339" x1="121.817" y1="74.0115" x2="127.307" y2="87.251" gradientUnits="userSpaceOnUse">
<stop stop-color="#03CDFE"/>
<stop offset="1" stop-color="#03CDFE" stop-opacity="0"/>
</linearGradient>
<linearGradient id="paint8_linear_985_5339" x1="142.459" y1="76.9368" x2="132.503" y2="91.2476" gradientUnits="userSpaceOnUse">
<stop stop-color="#03CDFE"/>
<stop offset="1" stop-color="#03CDFE" stop-opacity="0"/>
</linearGradient>
<linearGradient id="paint9_linear_985_5339" x1="137.006" y1="95.0261" x2="128.582" y2="85.2341" gradientUnits="userSpaceOnUse">
<stop stop-color="#03CDFE"/>
<stop offset="1" stop-color="#03CDFE" stop-opacity="0"/>
</linearGradient>
</defs>
</svg>
