<svg width="236" height="134" viewBox="0 0 236 134" fill="none" xmlns="http://www.w3.org/2000/svg">
<g opacity="0.5" filter="url(#filter0_d_316_1954)">
<path d="M-109.174 70.7504L-44.0731 70.014L21.028 69.2776L100.318 123.753L230.52 122.281" stroke="url(#paint0_linear_316_1954)" stroke-width="0.745871"/>
<path d="M45.6367 86.3032L86.3249 85.843L106.473 68.3112L136.311 67.9737" stroke="url(#paint1_linear_316_1954)" stroke-width="0.745871"/>
<path d="M-12.8789 69.6612L15.3288 45.1166L129.256 43.828L172.2 2.96644L197.969 2.67496" stroke="url(#paint2_linear_316_1954)" stroke-width="0.745871"/>
<path d="M72.0907 104.461L22.7883 105.019L-9.56656 122.689L-86.874 123.563" stroke="url(#paint3_linear_316_1954)" stroke-width="0.745871"/>
<path d="M37.4333 80.628L-31.7366 81.4104L-46.5512 90.8067L-95.377 91.359" stroke="url(#paint4_linear_316_1954)" stroke-width="0.745871"/>
<path d="M37.0296 44.8712L50.7619 59.7126L76.5311 59.4211" stroke="url(#paint5_linear_316_1954)" stroke-width="0.745871"/>
<path d="M127.443 123.447L146.118 95.549L196.3 94.9814" stroke="url(#paint6_linear_316_1954)" stroke-width="0.745871"/>
<path d="M142.802 30.9852L172.513 30.6492L193.144 55.7949L213.488 55.5648" stroke="url(#paint7_linear_316_1954)" stroke-width="0.745871"/>
<path d="M229.185 124.23C230.536 124.214 231.514 123.283 231.503 122.27C231.491 121.256 230.492 120.347 229.141 120.362C227.79 120.377 226.812 121.309 226.823 122.323C226.835 123.336 227.834 124.245 229.185 124.23Z" fill="url(#paint8_linear_316_1954)" stroke="url(#paint9_linear_316_1954)" stroke-width="0.745871"/>
<path d="M196.322 96.9153C197.673 96.8999 198.651 95.9689 198.64 94.9553C198.628 93.9416 197.629 93.0321 196.278 93.0473C194.927 93.0626 193.949 93.9945 193.96 95.0083C193.972 96.0218 194.971 96.9305 196.322 96.9153Z" fill="url(#paint10_linear_316_1954)" stroke="url(#paint11_linear_316_1954)" stroke-width="0.745871"/>
<path d="M136.333 69.9075C137.684 69.8922 138.663 68.9612 138.651 67.9476C138.64 66.9339 137.641 66.0244 136.29 66.0396C134.939 66.0549 133.96 66.9868 133.972 68.0005C133.984 69.0141 134.983 69.9228 136.333 69.9075Z" fill="url(#paint12_linear_316_1954)" stroke="url(#paint13_linear_316_1954)" stroke-width="0.745871"/>
<path d="M76.5522 61.355C77.903 61.3396 78.8813 60.4086 78.8701 59.395C78.8586 58.3813 77.8595 57.4719 76.5085 57.4871C75.1574 57.5023 74.1792 58.4342 74.1907 59.448C74.2024 60.4616 75.2014 61.3703 76.5522 61.355Z" fill="url(#paint14_linear_316_1954)" stroke="url(#paint15_linear_316_1954)" stroke-width="0.745871"/>
<path d="M214.866 57.4833C216.217 57.4679 217.195 56.5369 217.184 55.5234C217.172 54.5097 216.173 53.6002 214.822 53.6154C213.471 53.6307 212.493 54.5625 212.504 55.5763C212.516 56.5899 213.515 57.4986 214.866 57.4833Z" fill="url(#paint16_linear_316_1954)" stroke="url(#paint17_linear_316_1954)" stroke-width="0.745871"/>
<path d="M197.991 4.60881C199.342 4.59345 200.32 3.66242 200.309 2.64887C200.297 1.63517 199.298 0.725687 197.947 0.740889C196.596 0.756171 195.618 1.68805 195.629 2.7018C195.641 3.71539 196.64 4.62409 197.991 4.60881Z" fill="url(#paint18_linear_316_1954)" stroke="url(#paint19_linear_316_1954)" stroke-width="0.745871"/>
</g>
<defs>
<filter id="filter0_d_316_1954" x="-118" y="-0.00012207" width="353.902" height="136.469" filterUnits="userSpaceOnUse" color-interpolation-filters="sRGB">
<feFlood flood-opacity="0" result="BackgroundImageFix"/>
<feColorMatrix in="SourceAlpha" type="matrix" values="0 0 0 0 0 0 0 0 0 0 0 0 0 0 0 0 0 0 127 0" result="hardAlpha"/>
<feOffset dy="4"/>
<feGaussianBlur stdDeviation="2"/>
<feComposite in2="hardAlpha" operator="out"/>
<feColorMatrix type="matrix" values="0 0 0 0 0 0 0 0 0 0 0 0 0 0 0 0 0 0 0.25 0"/>
<feBlend mode="normal" in2="BackgroundImageFix" result="effect1_dropShadow_316_1954"/>
<feBlend mode="normal" in="SourceGraphic" in2="effect1_dropShadow_316_1954" result="shape"/>
</filter>
<linearGradient id="paint0_linear_316_1954" x1="-4551.24" y1="179.746" x2="-4551.97" y2="115.373" gradientUnits="userSpaceOnUse">
<stop stop-color="white"/>
<stop offset="1" stop-color="#60C5FF"/>
</linearGradient>
<linearGradient id="paint1_linear_316_1954" x1="-1145" y1="100.826" x2="-1145.23" y2="80.7098" gradientUnits="userSpaceOnUse">
<stop stop-color="white"/>
<stop offset="1" stop-color="#60C5FF"/>
</linearGradient>
<linearGradient id="paint2_linear_316_1954" x1="-2785.1" y1="104.959" x2="-2785.94" y2="29.8574" gradientUnits="userSpaceOnUse">
<stop stop-color="white"/>
<stop offset="1" stop-color="#60C5FF"/>
</linearGradient>
<linearGradient id="paint3_linear_316_1954" x1="-2172.31" y1="148.208" x2="-2172.53" y2="128.091" gradientUnits="userSpaceOnUse">
<stop stop-color="white"/>
<stop offset="1" stop-color="#60C5FF"/>
</linearGradient>
<linearGradient id="paint4_linear_316_1954" x1="-1836.92" y1="111.621" x2="-1837.04" y2="100.892" gradientUnits="userSpaceOnUse">
<stop stop-color="white"/>
<stop offset="1" stop-color="#60C5FF"/>
</linearGradient>
<linearGradient id="paint5_linear_316_1954" x1="-478.148" y1="66.6101" x2="-478.343" y2="49.1757" gradientUnits="userSpaceOnUse">
<stop stop-color="white"/>
<stop offset="1" stop-color="#60C5FF"/>
</linearGradient>
<linearGradient id="paint6_linear_316_1954" x1="-778.855" y1="135.387" x2="-779.215" y2="103.2" gradientUnits="userSpaceOnUse">
<stop stop-color="white"/>
<stop offset="1" stop-color="#60C5FF"/>
</linearGradient>
<linearGradient id="paint7_linear_316_1954" x1="-779.323" y1="68.3429" x2="-779.653" y2="38.8386" gradientUnits="userSpaceOnUse">
<stop stop-color="white"/>
<stop offset="1" stop-color="#60C5FF"/>
</linearGradient>
<linearGradient id="paint8_linear_316_1954" x1="155.396" y1="125.719" x2="155.337" y2="120.355" gradientUnits="userSpaceOnUse">
<stop stop-color="white"/>
<stop offset="1" stop-color="#60C5FF"/>
</linearGradient>
<linearGradient id="paint9_linear_316_1954" x1="155.396" y1="125.719" x2="155.337" y2="120.355" gradientUnits="userSpaceOnUse">
<stop stop-color="white"/>
<stop offset="1" stop-color="#60C5FF"/>
</linearGradient>
<linearGradient id="paint10_linear_316_1954" x1="122.533" y1="98.4045" x2="122.474" y2="93.0401" gradientUnits="userSpaceOnUse">
<stop stop-color="white"/>
<stop offset="1" stop-color="#60C5FF"/>
</linearGradient>
<linearGradient id="paint11_linear_316_1954" x1="122.533" y1="98.4045" x2="122.474" y2="93.0401" gradientUnits="userSpaceOnUse">
<stop stop-color="white"/>
<stop offset="1" stop-color="#60C5FF"/>
</linearGradient>
<linearGradient id="paint12_linear_316_1954" x1="62.5444" y1="71.3968" x2="62.4853" y2="66.0323" gradientUnits="userSpaceOnUse">
<stop stop-color="white"/>
<stop offset="1" stop-color="#60C5FF"/>
</linearGradient>
<linearGradient id="paint13_linear_316_1954" x1="62.5444" y1="71.3968" x2="62.4853" y2="66.0323" gradientUnits="userSpaceOnUse">
<stop stop-color="white"/>
<stop offset="1" stop-color="#60C5FF"/>
</linearGradient>
<linearGradient id="paint14_linear_316_1954" x1="2.76335" y1="62.8442" x2="2.70422" y2="57.4798" gradientUnits="userSpaceOnUse">
<stop stop-color="white"/>
<stop offset="1" stop-color="#60C5FF"/>
</linearGradient>
<linearGradient id="paint15_linear_316_1954" x1="2.76335" y1="62.8442" x2="2.70422" y2="57.4798" gradientUnits="userSpaceOnUse">
<stop stop-color="white"/>
<stop offset="1" stop-color="#60C5FF"/>
</linearGradient>
<linearGradient id="paint16_linear_316_1954" x1="141.077" y1="58.9725" x2="141.018" y2="53.6081" gradientUnits="userSpaceOnUse">
<stop stop-color="white"/>
<stop offset="1" stop-color="#60C5FF"/>
</linearGradient>
<linearGradient id="paint17_linear_316_1954" x1="141.077" y1="58.9725" x2="141.018" y2="53.6081" gradientUnits="userSpaceOnUse">
<stop stop-color="white"/>
<stop offset="1" stop-color="#60C5FF"/>
</linearGradient>
<linearGradient id="paint18_linear_316_1954" x1="124.202" y1="6.09803" x2="124.143" y2="0.733604" gradientUnits="userSpaceOnUse">
<stop stop-color="white"/>
<stop offset="1" stop-color="#60C5FF"/>
</linearGradient>
<linearGradient id="paint19_linear_316_1954" x1="124.202" y1="6.09803" x2="124.143" y2="0.733604" gradientUnits="userSpaceOnUse">
<stop stop-color="white"/>
<stop offset="1" stop-color="#60C5FF"/>
</linearGradient>
</defs>
</svg>
